<svg xmlns="http://www.w3.org/2000/svg" height="20" viewBox="0 -960 960 960" width="20"><path d="M269.942-113.694q-25.941 0-43.864-18.135t-17.923-44.076q0-25.941 18.135-43.864 18.136-17.923 44.077-17.923t43.864 18.135q17.923 18.135 17.923 44.077 0 25.941-18.136 43.864-18.135 17.922-44.076 17.922Zm419.691 0q-25.941 0-43.864-18.135t-17.923-44.076q0-25.941 18.136-43.864 18.135-17.923 44.076-17.923t43.864 18.135q17.923 18.135 17.923 44.077 0 25.941-18.135 43.864-18.136 17.922-44.077 17.922ZM247.615-706.001 336-501.692h293.692q3.462 0 6.154-1.731 2.693-1.731 4.616-4.808l79.307-187q2.308-4.231.385-7.5-1.923-3.27-6.539-3.27h-466Zm-21.769-51.998h535.383q15.538 0 22.615 11.384 7.077 11.385 1.692 24.154l-97.525 234.007q-7.474 17.453-22.666 28.107-15.192 10.653-34.499 10.653H317l-44.308 76.616q-3.077 4.616-.192 10.001t8.654 5.385h470.691v51.998H282.154q-37.999 0-55.615-31.152-17.615-31.152 1.077-62.231l55.078-94.616-132.539-308.308H68.001v-51.998h116.845l41 96ZM336-501.692h301-301Z"/></svg>