<svg xmlns="http://www.w3.org/2000/svg" height="24" viewBox="0 -960 960 960" width="24"><path d="M640-420q26 0 43-17t17-43q0-26-17-43t-43-17q-26 0-43 17t-17 43q0 26 17 43t43 17ZM200-240.003V-200-760-240.003Zm12.309 100.002q-30.308 0-51.308-21t-21-51.308v-535.382q0-30.308 21-51.308t51.308-21h535.382q30.308 0 51.308 21t21 51.308v108.846H760v-108.846q0-5.385-3.462-8.847-3.462-3.462-8.847-3.462H212.309q-5.385 0-8.847 3.462-3.462 3.462-3.462 8.847v535.382q0 5.385 3.462 8.847 3.462 3.462 8.847 3.462h535.382q5.385 0 8.847-3.462 3.462-3.462 3.462-8.847v-108.846h59.999v108.846q0 30.308-21 51.308t-51.308 21H212.309Zm320-160q-30.308 0-51.308-21t-21-51.308v-215.382q0-30.308 21-51.308t51.308-21h255.382q30.308 0 51.308 21t21 51.308v215.382q0 30.308-21 51.308t-51.308 21H532.309ZM787.691-360q5.385 0 8.847-3.462 3.462-3.462 3.462-8.847v-215.382q0-5.385-3.462-8.847-3.462-3.462-8.847-3.462H532.309q-5.385 0-8.847 3.462-3.462 3.462-3.462 8.847v215.382q0 5.385 3.462 8.847 3.462 3.462 8.847 3.462h255.382Z"/></svg>