<?xml version="1.0" standalone="no"?>
<!DOCTYPE svg PUBLIC "-//W3C//DTD SVG 20010904//EN"
 "http://www.w3.org/TR/2001/REC-SVG-20010904/DTD/svg10.dtd">
<svg version="1.0" xmlns="http://www.w3.org/2000/svg"
 width="720.000000pt" height="743.000000pt" viewBox="0 0 720.000000 743.000000"
 preserveAspectRatio="xMidYMid meet">

<g transform="translate(0.000000,743.000000) scale(0.100000,-0.100000)"
fill="#000000" stroke="none">
<path d="M0 3715 l0 -3715 3600 0 3600 0 0 3715 0 3715 -3600 0 -3600 0 0
-3715z m3751 3215 c10 0 24 9 31 20 13 20 28 27 28 13 -1 -18 -19 -34 -48 -42
-27 -8 -34 -7 -43 10 -6 12 -7 28 -3 37 6 14 9 11 12 -10 2 -20 9 -28 23 -28z
m139 -37 c0 -29 -50 -56 -85 -47 -17 4 -32 1 -44 -10 -10 -9 -44 -26 -76 -37
-31 -11 -68 -27 -81 -36 -22 -14 -26 -14 -43 1 -9 9 -27 16 -39 16 -19 0 -55
-35 -64 -62 -4 -12 -98 -29 -98 -17 0 4 17 10 38 14 28 4 43 14 56 35 25 44
51 55 96 40 33 -11 43 -9 110 20 41 17 82 38 92 46 9 9 31 15 50 14 66 -4 68
-3 68 38 0 27 3 33 10 22 5 -8 10 -25 10 -37z m-606 13 c-3 -9 -10 -16 -15
-16 -5 0 -4 9 3 20 14 22 21 20 12 -4z m-34 -22 c0 -2 -7 -4 -15 -4 -8 0 -15
4 -15 10 0 5 7 7 15 4 8 -4 15 -8 15 -10z m204 -13 c17 -18 17 -21 2 -43 -16
-23 -16 -23 -10 10 7 33 6 33 -27 30 -30 -3 -34 -7 -37 -35 -3 -30 -1 -33 25
-33 22 0 25 -2 13 -10 -20 -13 -26 -12 -44 6 -22 22 -20 50 6 74 27 25 50 25
72 1z m688 -73 c28 -55 83 -116 94 -105 4 3 -3 21 -14 39 -38 59 -54 90 -49
94 6 6 83 -116 80 -127 -2 -5 6 -9 18 -9 13 0 19 5 16 13 -2 6 -7 23 -11 37
l-7 25 20 -25 c11 -14 21 -28 21 -32 0 -5 11 -8 25 -8 35 0 31 -16 -6 -24 -47
-9 -98 -7 -120 4 -20 11 -73 89 -110 162 -19 39 -20 41 -3 26 11 -9 31 -41 46
-70z m-936 -34 c34 -91 37 -94 82 -83 20 4 38 7 39 5 1 -1 -17 -12 -42 -24
-44 -21 -45 -21 -55 -1 -11 20 -60 164 -60 176 0 15 11 -8 36 -73z m704 -168
c63 -1 79 -5 99 -23 14 -13 48 -27 80 -33 31 -6 65 -16 76 -22 11 -6 38 -12
60 -14 87 -5 145 -17 157 -32 11 -13 10 -15 -5 -9 -11 4 -50 12 -89 18 -83 13
-105 2 -51 -27 47 -25 51 -38 18 -68 -62 -58 -471 -76 -555 -24 -10 6 -1 7 25
3 152 -21 220 -22 359 -5 79 9 149 20 155 24 20 12 12 27 -41 78 -43 41 -60
51 -104 58 -29 5 -71 21 -93 36 -35 23 -48 26 -98 22 -31 -3 -74 -1 -95 5 -34
8 -43 6 -77 -17 -22 -15 -65 -34 -98 -42 -75 -20 -103 -38 -103 -69 0 -32 41
-62 96 -71 24 -3 47 -10 49 -15 9 -14 -68 3 -115 25 -40 19 -45 25 -45 54 0
17 -2 32 -4 32 -26 0 -84 -28 -96 -47 -44 -67 25 -96 295 -124 111 -11 408 -1
525 17 69 12 32 -5 -50 -22 -66 -14 -122 -15 -330 -11 -149 3 -266 10 -288 17
-22 6 -41 9 -44 6 -12 -11 67 -35 163 -50 l99 -15 -96 3 c-77 2 -106 8 -150
28 -30 14 -65 29 -79 33 -29 9 -79 63 -80 87 0 30 47 75 87 83 21 3 61 17 88
30 28 12 69 26 92 30 24 4 46 11 49 17 17 27 70 49 104 42 19 -3 69 -7 110 -8z
m-885 -61 c71 -19 152 -55 185 -81 24 -20 96 -127 128 -190 11 -22 25 -71 31
-110 21 -124 -16 -263 -107 -404 -71 -109 -96 -136 -156 -167 -96 -49 -154
-62 -268 -63 -91 0 -118 4 -175 25 -117 45 -266 175 -318 281 -27 54 -30 68
-30 164 0 81 4 112 18 138 10 17 19 32 20 32 7 0 -6 -86 -14 -94 -5 -6 -9 -46
-9 -90 1 -128 43 -200 187 -317 117 -95 165 -113 302 -117 214 -7 339 52 417
197 20 36 45 79 56 94 11 16 31 60 44 99 56 166 12 340 -124 489 -67 73 -238
125 -389 117 -78 -4 -100 4 -43 15 42 9 182 -1 245 -18z m949 6 c3 -5 -1 -11
-9 -15 -15 -6 -29 7 -18 18 9 9 21 8 27 -3z m-164 -31 c0 -5 -9 -10 -19 -10
-11 0 -23 5 -26 10 -4 6 5 10 19 10 14 0 26 -4 26 -10z m-130 -14 c0 -2 3 -11
6 -20 5 -12 0 -16 -20 -16 -24 0 -35 18 -19 33 7 8 33 10 33 3z m373 -30 c6
-16 -2 -28 -14 -20 -12 7 -11 34 0 34 5 0 11 -6 14 -14z m67 -1 c0 -8 -9 -15
-20 -15 -20 0 -26 11 -13 23 12 13 33 7 33 -8z m-189 -21 c10 -13 10 -17 -2
-24 -17 -11 -45 13 -35 29 10 15 21 14 37 -5z m-1055 -30 c5 -20 13 -24 41
-24 44 0 100 -26 120 -56 12 -18 21 -22 40 -18 19 5 32 -2 65 -37 82 -86 90
-177 24 -249 -18 -19 -25 -41 -29 -88 -6 -77 -42 -142 -98 -179 -34 -22 -51
-26 -104 -25 -42 0 -68 -4 -75 -13 -15 -19 16 -35 68 -35 79 0 159 54 192 130
10 24 10 23 4 -5 -19 -98 -175 -176 -260 -130 -28 15 -38 16 -63 5 -80 -33
-241 70 -293 187 -23 53 -28 146 -9 181 6 11 11 46 11 76 0 62 17 109 37 102
7 -3 13 -1 13 4 0 6 16 18 35 27 19 9 35 23 35 30 0 11 -5 11 -22 2 -13 -6
-31 -19 -41 -27 -16 -14 -17 -14 -12 0 3 8 23 24 43 34 20 10 53 36 72 57 26
29 54 45 104 62 77 26 93 24 102 -11z m885 -4 c10 0 19 5 19 10 0 6 5 10 10
10 24 0 7 -29 -21 -35 -32 -7 -54 8 -42 29 4 6 8 5 11 -2 2 -7 12 -12 23 -12z
m449 -10 c0 -5 -4 -10 -10 -10 -5 0 -10 5 -10 10 0 6 5 10 10 10 6 0 10 -4 10
-10z m-210 -26 c0 -8 -9 -14 -20 -14 -19 0 -27 19 -14 33 10 9 34 -4 34 -19z
m220 -92 c0 -13 -236 -29 -320 -22 -72 7 -70 7 45 9 66 2 147 7 180 11 89 11
95 11 95 2z m-238 -171 c20 -6 39 -18 42 -26 4 -12 -4 -10 -35 6 -28 14 -61
21 -103 21 -76 1 -219 -35 -268 -67 -75 -49 -118 -128 -118 -217 0 -62 12 -65
160 -34 63 13 116 22 118 21 6 -5 -105 -35 -189 -52 -46 -9 -79 -21 -79 -28 0
-15 80 -4 168 24 34 10 62 16 62 12 0 -8 -121 -46 -195 -62 -93 -19 -157 -80
-82 -78 17 0 40 4 51 8 24 9 78 2 70 -10 -3 -5 -14 -9 -26 -9 -17 0 -18 -2 -8
-15 14 -16 10 -18 -14 -9 -9 3 -16 12 -16 20 0 17 1 17 -39 3 -26 -9 -36 -8
-57 6 l-26 17 28 29 c15 16 35 31 44 34 15 5 17 19 16 93 -1 106 13 151 68
210 91 99 285 145 428 103z m-87 -81 c-5 -8 -11 -8 -21 1 -12 10 -12 14 -2 20
16 10 33 -5 23 -21z m-125 1 c0 -6 -4 -13 -10 -16 -5 -3 -10 1 -10 9 0 9 5 16
10 16 6 0 10 -4 10 -9z m1350 -73 c0 -4 14 -14 30 -23 17 -9 30 -22 30 -30 0
-8 9 -15 20 -15 11 0 20 -3 20 -7 0 -5 18 -32 41 -62 48 -64 47 -92 -6 -116
-20 -10 -35 -25 -37 -38 -2 -12 -7 -22 -13 -22 -16 0 -53 -30 -57 -45 -2 -8
-20 -27 -40 -42 -21 -16 -38 -33 -38 -38 0 -6 -7 -10 -15 -10 -9 0 -20 -11
-25 -25 -5 -14 -15 -25 -22 -25 -16 0 -118 -101 -118 -117 0 -7 -7 -13 -15
-13 -8 0 -15 -6 -15 -14 0 -8 -12 -17 -27 -20 -19 -4 -36 -20 -51 -46 -12 -22
-27 -40 -32 -40 -6 0 -10 -6 -10 -14 0 -8 -10 -16 -22 -18 -13 -2 -29 -15 -36
-30 -7 -16 -20 -28 -28 -28 -7 0 -14 -7 -14 -15 0 -9 -12 -20 -26 -25 -14 -6
-28 -19 -31 -30 -5 -18 -15 -25 -36 -21 -5 1 -5 -4 -1 -10 6 -10 -51 -69 -68
-69 -5 0 -8 -6 -8 -14 0 -7 -9 -16 -21 -19 -11 -3 -23 -15 -26 -26 -3 -12 -12
-21 -19 -21 -8 0 -19 -9 -26 -20 -7 -11 -17 -20 -21 -20 -12 0 -166 -163 -167
-176 0 -6 -22 -25 -49 -43 -34 -21 -57 -46 -72 -76 -13 -25 -26 -45 -30 -45
-11 0 -69 -89 -69 -106 0 -7 -6 -14 -14 -14 -8 0 -24 -19 -36 -42 -35 -68 -47
-89 -59 -101 -6 -6 -11 -21 -11 -34 0 -13 -4 -23 -9 -23 -14 0 -51 -64 -51
-87 0 -12 -7 -26 -15 -33 -8 -7 -15 -21 -15 -31 0 -11 -4 -19 -10 -19 -5 0
-10 -11 -10 -24 0 -13 -6 -29 -14 -36 -8 -6 -12 -18 -9 -25 3 -8 -5 -26 -16
-41 -12 -15 -21 -37 -21 -51 0 -13 -7 -35 -16 -48 -9 -14 -14 -32 -10 -40 8
-23 -26 -19 -80 10 l-48 26 -12 -23 c-7 -13 -10 -34 -8 -48 4 -17 -3 -36 -20
-59 -14 -19 -26 -42 -26 -52 0 -9 -7 -22 -15 -29 -8 -7 -15 -19 -15 -26 0 -8
-7 -14 -15 -14 -11 0 -15 12 -15 50 0 28 4 50 9 50 8 0 25 120 18 127 -2 1
-13 -6 -25 -17 -25 -24 -29 -14 -7 16 19 25 19 44 0 44 -12 0 -15 15 -15 78
-1 243 -6 356 -15 359 -6 2 -9 20 -7 41 2 20 -6 66 -17 101 l-20 64 87 86 c48
48 105 100 127 116 53 39 64 48 78 63 31 35 46 49 78 78 19 16 48 46 65 66 17
19 57 54 88 78 64 46 146 124 146 137 0 5 10 13 22 18 13 6 29 22 36 38 7 15
18 27 25 27 7 0 35 22 62 48 28 26 64 56 80 67 16 11 46 36 66 55 143 136 179
173 179 186 0 8 8 14 19 14 23 0 181 136 200 173 8 15 19 27 24 27 5 0 55 42
112 93 267 239 250 227 282 189 13 -15 23 -30 23 -34z m-1524 3 c-4 -6 -14
-11 -22 -11 -12 0 -13 4 -3 21 7 14 14 18 21 11 6 -6 7 -15 4 -21z m99 -40 c7
-12 -12 -24 -25 -16 -11 7 -4 25 10 25 5 0 11 -4 15 -9z m185 -12 c0 -6 -4 -7
-10 -4 -5 3 -10 11 -10 16 0 6 5 7 10 4 6 -3 10 -11 10 -16z m-55 -28 c7 -12
-24 -43 -36 -36 -5 4 -9 14 -8 23 0 11 3 12 6 5 5 -14 24 -18 22 -5 -4 21 6
29 16 13z m-257 -33 c-4 -27 -28 -36 -28 -10 0 20 8 32 22 32 5 0 8 -10 6 -22z
m92 -3 c0 -8 -4 -15 -10 -15 -5 0 -10 7 -10 15 0 8 5 15 10 15 6 0 10 -7 10
-15z m-1626 -37 c12 -47 5 -129 -15 -184 l-21 -56 -37 6 c-26 4 -47 17 -73 48
-36 40 -44 64 -13 38 13 -11 15 -8 16 16 0 27 1 27 15 -10 17 -48 41 -76 64
-76 28 0 45 57 45 153 0 85 7 109 19 65z m-34 -84 c0 -24 -4 -34 -12 -32 -24
8 -22 68 2 68 5 0 10 -16 10 -36z m-22 -82 c2 -7 -3 -12 -12 -12 -9 0 -16 7
-16 16 0 17 22 14 28 -4z m200 -88 c95 -56 212 -196 212 -255 0 -16 -11 -40
-24 -56 -23 -27 -25 -27 -63 -14 -54 19 -140 76 -195 129 -39 38 -48 43 -54
29 -22 -59 182 -317 264 -333 19 -4 38 -2 44 4 13 13 12 95 -2 121 -7 14 -7
21 0 21 14 0 30 -44 30 -85 0 -51 -16 -84 -45 -91 -34 -8 -75 3 -75 21 0 9 -6
12 -17 8 -12 -5 -15 -2 -10 10 4 10 2 14 -6 11 -13 -5 -124 114 -170 182 -32
47 -41 97 -26 135 8 21 7 34 -5 57 -26 50 -21 86 16 117 36 30 58 28 126 -11z
m-427 -70 c4 -22 9 -55 9 -75 0 -22 8 -45 21 -60 25 -28 82 -149 75 -157 -3
-2 -10 8 -16 24 -13 37 -39 84 -58 107 -15 17 -16 17 -26 0 -6 -10 -13 -47
-16 -82 -4 -45 -10 -67 -22 -75 -30 -18 -30 0 1 95 34 103 38 162 16 224 -18
48 -19 63 -4 48 6 -6 15 -28 20 -49z m-43 -5 c-3 -20 -5 -19 -9 9 -3 20 -2 29
4 23 5 -5 7 -19 5 -32z m4040 -135 c10 6 52 -47 52 -64 0 -6 5 -8 11 -4 8 4 8
0 0 -15 -7 -11 -18 -21 -25 -21 -8 0 -33 -21 -57 -46 -24 -25 -50 -51 -57 -57
-76 -68 -196 -195 -194 -204 2 -7 -3 -13 -10 -13 -15 -1 -78 -56 -78 -69 0
-13 -62 -71 -77 -71 -18 0 -53 -41 -53 -62 0 -10 -7 -18 -17 -18 -24 -1 -177
-146 -168 -160 3 -5 -1 -10 -9 -10 -9 0 -16 -6 -16 -14 0 -8 -10 -18 -22 -22
-12 -3 -50 -34 -84 -68 -34 -33 -85 -83 -113 -109 -28 -27 -54 -59 -57 -73 -5
-20 -9 -22 -20 -13 -11 9 -14 7 -14 -10 0 -13 -6 -21 -17 -21 -9 0 -30 -15
-47 -33 -17 -19 -59 -53 -93 -76 -48 -32 -67 -40 -87 -35 -14 3 -26 10 -26 15
0 5 -9 9 -20 9 -12 0 -39 17 -61 38 -38 35 -40 40 -41 101 -1 49 3 67 16 76 9
7 14 19 10 29 -4 10 -1 16 7 16 18 1 59 35 59 49 0 6 5 11 10 11 6 0 10 6 10
14 0 7 9 16 21 19 11 3 23 14 26 25 3 11 14 22 25 25 11 3 22 15 25 27 3 13
11 19 19 16 8 -3 14 1 14 10 0 8 11 19 24 24 13 5 30 22 37 39 8 17 19 31 25
31 17 0 104 80 104 96 0 8 5 14 10 14 20 0 176 154 186 183 3 10 11 16 17 14
12 -4 47 28 47 43 0 6 11 10 25 10 14 0 25 6 25 13 0 21 132 152 149 149 12
-3 13 -1 3 11 -10 12 -8 17 12 31 14 9 30 16 36 16 5 0 10 7 10 15 0 8 4 15 9
15 5 0 11 9 14 20 3 11 14 20 24 20 19 0 53 32 53 51 0 14 26 39 41 39 6 0 40
29 74 65 l63 65 81 -81 c44 -44 85 -78 89 -75z m-2356 77 c5 -4 -34 -5 -86 -3
-130 6 -344 -22 -410 -54 -61 -29 -89 -46 -98 -59 -14 -18 -9 -135 7 -164 20
-40 70 -79 140 -112 69 -32 52 -40 -19 -8 -56 24 -107 68 -136 115 -19 29 -27
34 -61 34 -45 0 -82 -29 -72 -57 10 -29 65 -83 106 -104 21 -11 71 -29 110
-39 40 -10 61 -19 47 -19 -38 -1 -126 25 -166 48 -22 13 -34 16 -32 9 5 -16
117 -86 138 -88 21 -1 46 -18 38 -26 -16 -15 -154 69 -210 128 -32 34 -58 64
-58 68 0 23 25 72 40 80 10 6 37 10 59 10 l41 0 0 50 c0 88 36 126 155 163
117 37 438 56 467 28z m-162 -76 c10 -12 6 -17 -22 -29 -18 -8 -53 -20 -77
-27 -60 -18 -106 -64 -120 -119 -21 -80 -27 -90 -63 -90 -45 0 -53 8 -72 63
-20 58 -20 78 -2 121 17 41 74 66 154 66 31 1 84 7 117 14 33 8 63 14 66 15 4
1 12 -6 19 -14z m38 -62 c-14 -16 -30 -37 -36 -48 l-11 -20 0 20 c0 24 16 47
44 63 30 17 31 14 3 -15z m-1094 -34 c-9 -15 -31 -10 -38 7 -10 26 4 37 25 18
10 -9 16 -21 13 -25z m-774 -64 c0 -50 112 -254 197 -357 62 -76 79 -104 47
-77 -53 44 -188 253 -226 349 -36 92 -42 114 -29 106 6 -4 11 -13 11 -21z
m853 0 c7 -16 -8 -29 -23 -20 -15 9 -12 35 4 35 8 0 16 -7 19 -15z m90 -22 c3
-16 3 -30 1 -32 -6 -6 -33 32 -34 47 0 24 28 11 33 -15z m-476 -15 c-3 -7 -5
-2 -5 12 0 14 2 19 5 13 2 -7 2 -19 0 -25z m29 -158 c3 -47 10 -95 16 -107 6
-13 8 -26 5 -30 -4 -3 -7 -1 -7 5 0 7 -7 12 -15 12 -8 0 -15 -6 -15 -13 0 -14
-39 -51 -47 -43 -3 2 7 20 22 40 30 39 35 82 23 206 -5 54 -4 67 3 45 5 -16
12 -68 15 -115z m-654 68 c-7 -7 -12 -22 -12 -35 0 -38 -22 -73 -49 -79 -14
-3 -34 -7 -43 -9 -10 -2 -21 1 -24 6 -3 5 10 9 28 9 47 0 61 13 62 55 1 24 9
42 21 51 23 17 33 18 17 2z m535 -20 c-3 -8 -6 -5 -6 6 -1 11 2 17 5 13 3 -3
4 -12 1 -19z m4302 -14 c11 7 24 -11 26 -35 2 -25 31 -50 49 -43 11 4 16 0 16
-14 0 -12 11 -29 24 -39 l24 -18 -157 -155 c-86 -85 -165 -168 -175 -184 -10
-16 -31 -33 -47 -39 -16 -6 -29 -15 -29 -19 0 -4 -17 -23 -37 -42 -29 -27 -43
-34 -62 -29 -21 5 -23 3 -18 -17 6 -24 -11 -60 -29 -60 -14 0 -64 -53 -64 -68
0 -7 -3 -12 -7 -12 -18 -1 -44 -51 -37 -72 6 -21 7 -21 20 -2 8 10 42 47 76
82 42 42 69 62 86 62 21 0 11 -14 -76 -102 -55 -57 -118 -125 -140 -153 -46
-58 -72 -83 -127 -119 -22 -15 -99 -85 -171 -156 -72 -72 -136 -130 -142 -130
-27 0 -6 28 93 128 58 57 105 108 105 113 0 5 -9 9 -20 9 -20 0 -60 -31 -144
-115 -28 -28 -65 -60 -82 -72 -18 -13 -34 -31 -37 -42 -4 -17 1 -20 36 -23 22
-2 42 -8 44 -14 6 -17 -61 -22 -76 -6 -11 11 -19 10 -47 -7 -40 -24 -59 -17
-114 40 -34 36 -35 39 -32 103 3 49 7 66 18 66 8 0 14 5 14 12 0 7 31 42 69
79 39 37 67 69 64 73 -3 3 5 10 18 15 25 10 116 102 135 136 6 11 19 21 28 23
23 5 111 94 108 110 -2 6 10 17 25 23 34 13 66 46 58 59 -3 6 4 14 17 19 13 5
52 36 87 70 35 33 70 62 78 65 7 3 13 15 13 26 0 11 7 20 15 20 8 0 15 7 15
15 0 8 7 15 15 15 9 0 19 8 22 18 9 23 82 93 116 111 15 8 30 25 33 38 4 13
11 23 18 23 19 0 91 70 88 86 -2 8 4 14 13 14 8 0 15 4 15 10 0 11 70 80 81
80 5 0 22 14 40 31 24 23 34 28 44 19 8 -7 19 -9 24 -6z m-4245 -109 c3 -8 1
-15 -4 -15 -6 0 -10 7 -10 15 0 8 2 15 4 15 2 0 6 -7 10 -15z m4430 -93 c6
-10 -470 -482 -485 -482 -5 0 -9 11 -9 25 0 14 5 25 10 25 6 0 29 18 51 40 22
22 44 40 48 40 3 0 13 10 21 21 8 12 20 27 27 33 6 6 59 58 117 116 58 58 118
116 133 130 15 14 34 33 42 42 18 18 37 22 45 10z m-5014 -51 c24 -45 -2 -161
-36 -161 -14 0 -34 44 -34 75 0 14 -4 25 -9 25 -13 0 -41 -87 -41 -127 0 -29
3 -33 28 -33 15 0 52 7 82 15 30 8 61 15 68 15 21 0 8 -25 -14 -26 -44 -2
-115 -17 -120 -25 -3 -5 2 -9 10 -9 22 0 50 -46 41 -67 -6 -15 -9 -12 -16 13
-14 51 -53 50 -83 -3 -9 -17 4 -44 28 -53 19 -8 19 -9 -7 -9 -23 -1 -29 4 -34
30 -6 34 -15 29 -30 -17 -8 -23 -7 -37 4 -57 17 -33 4 -35 -26 -3 l-22 24 20
33 c25 41 26 57 4 81 -9 10 -17 35 -17 56 -1 30 -5 38 -23 40 -25 4 -53 -31
-53 -66 0 -14 -14 -40 -31 -60 -27 -31 -30 -40 -24 -71 4 -20 8 -61 9 -92 1
-39 7 -62 19 -74 10 -9 15 -20 12 -23 -3 -3 -15 4 -28 16 -16 17 -21 33 -20
65 1 23 -3 63 -8 89 -11 50 -3 78 33 109 10 9 18 26 18 37 0 63 48 105 95 84
17 -8 25 -20 25 -37 0 -18 5 -25 19 -25 16 0 21 10 26 58 5 44 17 72 51 125
46 69 66 81 84 48z m5276 -196 c14 -14 29 -25 34 -25 6 0 10 -4 10 -9 0 -5 34
-43 75 -86 41 -42 75 -81 75 -86 0 -5 -32 -39 -71 -76 -39 -38 -145 -141 -236
-231 -138 -136 -168 -162 -186 -156 -12 4 -23 11 -25 15 -5 12 -42 11 -42 -1
0 -5 8 -10 19 -10 22 0 32 -30 19 -54 -5 -9 -7 -20 -3 -25 3 -5 -4 -12 -15
-16 -11 -3 -20 -11 -20 -17 0 -11 -40 -47 -55 -48 -17 -1 -65 -48 -65 -65 0
-8 -7 -15 -16 -15 -8 0 -57 -42 -109 -92 -51 -51 -125 -124 -165 -162 -39 -37
-78 -82 -86 -98 -9 -17 -22 -28 -31 -26 -10 2 -30 -17 -52 -49 -37 -55 -51
-65 -51 -37 0 13 -6 11 -26 -10 -24 -23 -35 -26 -95 -26 -38 0 -69 3 -69 8 0
4 -16 24 -35 44 -19 20 -35 41 -35 47 0 5 -8 15 -17 20 -16 9 -16 12 -3 20 8
6 15 16 16 23 0 7 2 22 2 34 1 12 13 26 27 32 14 6 25 18 25 26 0 8 25 39 55
70 30 31 59 65 65 76 6 12 16 18 21 14 6 -3 13 3 16 14 3 12 11 22 18 24 8 2
68 56 134 121 66 64 125 117 130 117 5 0 7 9 4 20 -4 14 0 20 10 20 20 0 97
69 97 87 0 7 11 18 25 23 14 5 25 16 25 25 0 8 5 15 10 15 17 0 80 44 80 56 0
6 27 36 60 68 33 32 60 64 60 72 0 8 7 14 16 14 17 0 314 288 314 305 0 13 21
35 32 35 5 0 20 -11 34 -25z m-5146 -5 c0 -5 -9 -10 -20 -10 -11 0 -20 5 -20
10 0 6 9 10 20 10 11 0 20 -4 20 -10z m-690 -199 c57 -11 73 -53 66 -176 -5
-115 -38 -249 -69 -282 -14 -16 -32 -23 -56 -23 -26 0 -32 3 -21 10 12 8 12
12 0 36 -31 56 2 274 56 372 25 46 25 46 -33 56 -28 5 -33 2 -33 -14 0 -11 9
-20 23 -23 l22 -4 -22 -8 c-20 -6 -23 -14 -23 -64 -1 -74 -24 -200 -44 -239
-24 -47 -25 -39 -4 23 18 55 45 261 35 271 -2 3 -20 1 -38 -3 -31 -8 -34 -13
-46 -69 -7 -32 -12 -83 -13 -111 0 -29 -4 -53 -8 -53 -6 0 0 116 10 195 2 16
-2 19 -22 17 -24 -4 -25 -3 -5 12 11 8 26 16 33 16 7 0 15 14 19 31 9 47 53
54 173 30z m-327 -316 c18 -37 84 -115 98 -115 5 0 10 17 10 38 1 26 3 29 6
12 8 -49 12 -54 30 -39 14 12 15 11 9 -8 -6 -19 -3 -23 21 -29 50 -10 60 -17
35 -21 -31 -6 -118 24 -146 50 -25 24 -96 127 -96 139 0 19 18 5 33 -27z
m6588 -35 c5 0 9 -13 9 -30 0 -16 6 -49 14 -72 12 -38 28 -175 28 -248 0 -147
-18 -256 -58 -347 -8 -17 -14 -38 -14 -47 0 -8 -9 -20 -19 -26 -26 -13 -31
-13 -31 4 0 8 -6 16 -13 19 -10 4 -13 -2 -9 -19 2 -13 8 -27 13 -30 16 -9 10
-32 -21 -84 -17 -28 -28 -55 -26 -59 3 -4 -9 -16 -25 -26 -17 -11 -33 -32 -36
-47 -4 -19 -12 -28 -24 -28 -12 0 -21 -10 -25 -26 -4 -14 -12 -23 -19 -20 -7
2 -36 -23 -66 -56 -30 -34 -66 -74 -80 -89 -15 -15 -29 -35 -32 -44 -4 -8 -14
-15 -24 -15 -21 0 -193 -167 -205 -199 -4 -12 -13 -19 -19 -16 -14 9 -57 -32
-80 -77 -11 -21 -25 -38 -33 -38 -7 0 -28 -15 -47 -32 -19 -18 -62 -58 -95
-89 -33 -31 -58 -62 -56 -68 2 -6 -2 -11 -9 -11 -18 0 -109 -88 -96 -93 7 -2
-1 -11 -18 -18 -16 -8 -78 -61 -137 -119 -59 -58 -145 -142 -192 -188 -47 -46
-86 -90 -86 -98 0 -7 -7 -14 -15 -14 -9 0 -20 -11 -25 -25 -5 -14 -16 -25 -24
-25 -7 0 -16 -9 -19 -21 -3 -13 -10 -18 -17 -14 -13 8 -100 -80 -100 -100 0
-6 -11 -17 -25 -23 -34 -16 -195 -171 -195 -189 0 -7 -10 -17 -23 -22 -31 -12
-93 -73 -102 -100 -7 -22 -25 -29 -25 -10 0 5 -4 7 -10 4 -5 -3 -10 0 -10 8 0
18 -47 62 -68 62 -10 0 -17 8 -17 18 0 10 -7 22 -15 27 -22 14 -27 12 -25 -9
0 -10 32 -47 69 -82 l68 -64 -28 -11 c-16 -7 -28 -16 -28 -21 3 -19 -10 -34
-42 -49 -19 -9 -34 -24 -34 -33 0 -22 -19 -41 -42 -41 -10 0 -18 -7 -18 -15 0
-8 -5 -15 -10 -15 -16 0 -67 -54 -63 -66 2 -7 -9 -16 -26 -22 -16 -6 -32 -20
-36 -32 -4 -13 -12 -19 -21 -16 -8 3 -14 -1 -14 -9 0 -8 -4 -15 -10 -15 -5 0
-10 -7 -10 -15 0 -8 -7 -15 -15 -15 -18 0 -45 -26 -64 -63 -8 -15 -20 -27 -26
-27 -6 0 -22 -11 -35 -25 -13 -14 -26 -21 -30 -15 -6 10 -66 -37 -63 -50 1 -4
-9 -11 -24 -14 -14 -4 -32 -14 -40 -21 -26 -27 -50 -16 -124 56 -74 71 -121
103 -141 97 -10 -4 46 -66 92 -103 29 -23 70 -78 70 -93 0 -6 -10 -14 -22 -17
-27 -8 -86 -32 -110 -45 -10 -6 -27 -10 -37 -10 -11 0 -25 -8 -30 -18 -6 -9
-11 -12 -11 -6 0 12 -87 3 -150 -16 -42 -12 -143 -13 -136 -1 8 13 -93 22
-113 9 -13 -8 -26 -5 -56 11 -22 11 -45 21 -52 21 -7 0 -13 5 -13 11 0 6 -7 8
-15 5 -9 -3 -34 5 -55 19 -22 14 -44 25 -50 25 -29 0 2 42 111 148 67 64 127
123 133 130 12 14 77 78 132 130 20 17 41 32 49 32 7 0 28 -16 47 -36 18 -20
42 -44 52 -53 11 -9 30 -27 44 -41 l24 -25 -4 35 c-2 21 -8 34 -15 33 -7 -2
-13 3 -13 9 0 7 -23 35 -52 61 -45 41 -51 50 -40 65 7 9 21 36 31 58 20 44 30
53 73 69 30 11 161 134 196 183 23 31 28 57 14 66 -5 3 -86 -71 -182 -164 -95
-94 -180 -170 -189 -170 -9 0 -33 20 -54 44 -40 48 -89 78 -113 69 -17 -6 -19
-23 -3 -23 7 0 22 -10 35 -23 12 -12 37 -35 53 -52 17 -16 31 -40 31 -52 0
-23 -86 -131 -105 -132 -6 -1 -27 -21 -48 -45 -21 -25 -47 -48 -57 -51 -11 -4
-20 -12 -20 -18 0 -7 -32 -42 -72 -77 -83 -75 -95 -87 -126 -124 -21 -25 -24
-26 -45 -11 -12 8 -22 21 -22 28 0 6 -8 12 -18 12 -10 0 -21 5 -25 11 -4 6
-15 14 -26 17 -15 6 -16 10 -6 22 8 9 8 15 2 15 -6 0 -13 -6 -16 -12 -3 -10
-9 -8 -19 5 -8 9 -19 17 -26 17 -6 0 -11 7 -11 16 0 8 -4 12 -10 9 -5 -3 -15
5 -22 19 -6 15 -20 26 -30 26 -10 0 -23 11 -28 25 -5 13 -22 31 -38 39 -16 8
-32 26 -36 40 -3 13 -25 39 -48 58 -24 18 -54 44 -66 58 -13 14 -29 25 -35 25
-7 0 -12 11 -12 25 0 14 5 25 10 25 31 1 222 198 217 223 -2 8 6 16 17 19 12
3 21 14 21 24 0 11 7 19 18 19 24 1 50 22 45 38 -3 7 4 12 16 12 12 0 29 13
42 33 12 17 39 44 61 60 46 33 53 30 126 -46 49 -52 112 -85 112 -58 0 6 -5
11 -11 11 -5 0 -7 4 -4 10 3 5 2 10 -4 10 -10 0 -151 140 -151 149 0 11 71 81
82 81 6 0 8 11 5 26 -4 22 1 28 27 39 36 16 92 63 89 76 -2 5 7 14 20 20 28
16 97 85 97 99 0 5 7 10 15 10 8 0 15 7 15 15 0 8 4 15 9 15 8 0 24 37 22 52
0 4 14 14 32 22 37 16 82 60 73 74 -3 5 10 16 29 25 19 9 35 23 35 32 0 8 4
15 10 15 5 0 25 13 43 30 19 16 37 27 41 23 3 -3 6 -1 6 6 0 21 73 119 98 133
15 8 22 18 19 30 -4 14 1 18 18 18 23 0 65 45 65 69 0 6 7 11 15 11 14 0 93
75 127 121 14 18 15 25 5 31 -7 4 2 7 23 7 28 0 31 -2 15 -9 -16 -6 -17 -9 -5
-13 28 -10 135 -29 205 -38 39 -5 87 -13 108 -18 23 -5 39 -5 43 1 4 5 10 5
17 0 20 -16 167 -13 173 3 3 7 12 16 20 19 9 3 12 1 9 -4 -3 -6 -2 -10 4 -10
5 0 13 5 16 11 4 5 32 9 63 8 89 -3 203 23 246 56 29 22 39 26 46 15 6 -10 15
-9 45 8 20 12 42 22 50 22 13 0 62 21 117 51 54 28 28 -6 -99 -131 -134 -130
-161 -168 -134 -184 9 -6 166 137 266 243 33 35 66 69 74 75 7 6 32 29 55 51
36 36 142 127 171 147 27 19 124 105 159 140 21 22 44 37 52 34 14 -5 38 27
27 37 -3 4 3 10 13 13 17 7 74 49 99 75 70 71 105 109 105 116 0 4 14 16 31
25 17 10 27 22 24 28 -3 5 -1 10 6 10 7 0 9 3 6 7 -4 4 6 12 23 19 17 7 29 17
28 21 -4 12 44 63 54 57 4 -3 12 6 18 20 6 17 14 24 25 20 11 -5 14 -2 9 10
-4 11 -1 16 10 16 9 0 19 7 22 15 4 8 15 15 26 15 16 0 18 3 9 14 -9 11 -6 15
13 20 14 3 30 15 36 26 13 24 38 26 46 5 9 -22 30 -18 30 5 0 12 -6 20 -16 19
-36 -3 -43 0 -30 16 7 8 18 15 24 15 15 0 117 106 109 114 -3 3 6 10 21 16 15
5 24 14 21 20 -3 6 5 14 19 19 13 6 28 16 33 24 4 7 25 26 45 43 21 16 38 36
38 45 0 9 12 25 28 35 15 9 50 39 77 65 l50 49 3 -35 c2 -19 7 -35 13 -35z
m-6414 -216 c57 -29 72 -33 92 -24 33 15 38 5 7 -15 -29 -20 -50 -15 -114 26
-30 19 -59 29 -84 29 -45 0 -47 -8 -12 -41 57 -53 78 -126 61 -217 -7 -41 -7
-42 13 -32 12 6 26 10 33 7 23 -7 -36 -29 -94 -34 -74 -7 -101 9 -134 82 -33
72 -34 149 -2 196 48 71 127 79 234 23z m3113 -178 c0 -2 3 -11 6 -20 4 -11 0
-16 -13 -16 -18 0 -19 -9 -18 -185 0 -131 4 -188 13 -197 6 -6 12 -29 12 -49
0 -21 7 -45 16 -54 12 -12 13 -19 5 -29 -7 -9 -8 -17 -3 -20 5 -3 12 -20 14
-38 5 -31 -2 -40 -98 -134 -56 -56 -100 -104 -98 -107 3 -3 -10 -14 -29 -26
-18 -11 -41 -29 -51 -40 -10 -11 -22 -19 -25 -16 -4 2 -20 -7 -36 -21 -15 -13
-32 -24 -37 -24 -4 0 -8 -11 -8 -25 0 -14 -6 -25 -12 -25 -18 0 -98 -72 -98
-87 0 -7 -5 -13 -10 -13 -6 0 -26 -16 -46 -35 -19 -19 -38 -36 -42 -37 -4 -1
-18 -14 -32 -30 -13 -15 -30 -28 -37 -28 -6 0 -15 -9 -18 -20 -3 -11 -14 -20
-24 -20 -22 0 -41 -19 -41 -42 0 -10 -6 -18 -12 -18 -13 -1 -68 -44 -68 -54 0
-9 -48 -53 -64 -59 -9 -4 -16 -13 -16 -22 0 -9 -9 -15 -21 -15 -12 0 -23 -8
-26 -19 -3 -11 -18 -24 -34 -30 -16 -6 -33 -21 -39 -35 -5 -15 -16 -26 -25
-26 -8 0 -15 -4 -15 -9 0 -16 -34 -18 -53 -3 -22 19 -35 7 -19 -18 14 -23 -2
-70 -25 -70 -7 0 -13 -4 -13 -9 0 -4 -25 -28 -56 -52 -92 -72 -134 -111 -134
-126 0 -7 -7 -13 -15 -13 -16 0 -60 -35 -60 -48 0 -14 -31 -48 -62 -71 -18
-12 -33 -29 -33 -37 0 -8 -7 -14 -15 -14 -9 0 -18 -7 -21 -15 -4 -8 -14 -15
-23 -15 -9 0 -22 -5 -29 -12 -13 -13 -28 1 -227 200 -40 39 -78 72 -84 72 -6
0 -18 14 -26 30 -9 17 -19 28 -24 26 -4 -3 -25 15 -45 40 -21 25 -49 49 -62
54 -13 5 -24 16 -24 24 0 7 -17 29 -39 49 -49 44 -57 57 -31 50 11 -3 26 -1
33 4 6 6 37 11 67 12 58 2 120 19 120 33 0 5 11 6 25 2 14 -3 31 -2 38 4 6 5
27 13 45 17 18 4 32 13 32 21 0 10 7 13 24 8 23 -6 116 29 116 44 0 4 20 8 45
10 35 2 45 -1 45 -13 0 -8 -7 -15 -15 -15 -8 0 -15 -4 -15 -10 0 -17 17 -11
47 15 21 19 24 24 11 25 -9 0 -20 5 -23 11 -5 6 6 9 31 7 26 -2 39 1 39 10 0
7 15 22 34 33 29 18 38 19 58 8 27 -15 41 -6 24 15 -11 13 -7 21 22 51 19 19
44 35 56 35 11 0 21 3 21 8 0 4 15 16 34 26 19 10 55 38 79 62 25 24 48 44 51
44 3 0 28 22 57 50 28 27 55 47 59 45 11 -7 100 74 100 90 0 8 9 16 20 20 11
3 30 21 42 38 31 45 41 56 60 75 84 81 128 133 128 149 0 8 17 34 38 58 21 24
51 69 67 101 16 33 33 60 37 62 15 7 67 122 62 137 -4 8 -1 15 5 15 6 0 20 20
31 45 20 44 31 58 78 99 18 15 24 16 37 6 13 -11 13 -15 -1 -41 -13 -27 -13
-29 4 -29 25 0 82 20 82 29 0 13 77 51 103 51 27 0 37 16 37 60 0 17 8 33 23
43 22 16 37 21 37 13z m-3335 -178 c5 -22 -8 -68 -19 -68 -1 0 -2 14 -1 30 1
17 -4 42 -12 56 -17 34 -17 36 7 22 11 -7 22 -25 25 -40z m145 -182 c0 -3 -21
-18 -46 -35 -38 -27 -43 -28 -30 -9 20 28 76 60 76 44z"/>
<path d="M2822 6410 c2 -7 -11 -27 -29 -46 -31 -33 -63 -108 -51 -119 13 -13
56 20 82 61 34 54 40 106 12 112 -11 2 -17 -1 -14 -8z"/>
<path d="M2795 6400 c-3 -5 -19 -7 -36 -3 -25 5 -35 0 -67 -34 -38 -40 -62
-97 -62 -148 0 -21 4 -26 16 -21 9 3 18 6 20 6 2 0 4 12 4 28 0 15 5 34 11 42
8 11 9 8 5 -15 -9 -44 3 -56 39 -40 18 8 23 14 13 14 -14 1 -15 6 -6 39 13 48
35 91 61 120 11 12 18 22 14 22 -3 0 -9 -4 -12 -10z m-59 -50 c-14 -17 -26
-29 -26 -25 0 12 42 66 47 61 3 -3 -6 -19 -21 -36z"/>
<path d="M2890 6363 c1 -5 20 -17 43 -28 63 -30 68 -64 33 -205 -27 -104 -28
-131 -11 -172 15 -36 -11 -16 -38 29 -27 44 -28 49 -22 142 6 86 4 99 -14 129
-23 36 -41 40 -64 14 -16 -17 -15 -20 7 -41 13 -12 31 -49 40 -81 15 -54 15
-63 0 -124 -21 -83 -36 -78 -17 5 16 72 5 142 -28 178 -24 25 -28 26 -57 5
-28 -19 -28 -34 0 -26 14 3 19 2 14 -6 -4 -7 -13 -12 -20 -12 -17 0 -36 -43
-36 -79 0 -16 15 -51 33 -77 41 -63 100 -94 178 -94 50 0 60 4 90 34 33 31 59
90 59 133 0 11 -12 30 -27 44 -23 21 -25 22 -18 4 4 -11 10 -31 12 -45 4 -24
4 -24 -11 -6 -15 19 -16 18 -30 -16 -11 -27 -13 -44 -6 -69 12 -41 12 -39 0
-39 -5 0 -12 16 -16 35 -5 26 2 60 25 130 46 139 40 199 -24 230 -34 16 -95
21 -95 8z m141 -346 c-13 -13 -15 1 -4 30 7 17 8 17 11 -1 2 -10 -1 -23 -7
-29z"/>
<path d="M2860 6325 c-8 -10 -8 -15 3 -22 38 -22 49 -60 48 -170 -1 -123 8
-125 38 -9 25 96 27 159 5 180 -8 9 -16 16 -17 16 -1 0 -16 4 -34 9 -24 7 -35
6 -43 -4z"/>
<path d="M3060 6276 c0 -13 10 -30 23 -38 19 -13 23 -27 27 -89 4 -60 8 -74
23 -77 15 -3 17 5 18 65 0 54 2 63 10 44 12 -31 1 -111 -17 -118 -16 -6 -19
-33 -4 -33 15 0 47 57 55 97 7 38 -20 107 -55 138 -23 21 -27 8 -5 -21 25 -33
16 -34 -18 -1 -22 22 -30 36 -24 45 7 8 3 12 -12 12 -15 0 -21 -6 -21 -24z"/>
<path d="M2557 6224 c-18 -16 -27 -34 -25 -47 4 -32 30 -27 39 7 4 15 16 37
25 47 27 30 -6 24 -39 -7z"/>
<path d="M3057 6223 c-15 -14 -6 -57 18 -85 l25 -30 0 44 c-1 52 -24 91 -43
71z"/>
<path d="M2586 6195 c-3 -9 0 -15 9 -15 8 0 15 7 15 15 0 8 -4 15 -9 15 -5 0
-11 -7 -15 -15z"/>
<path d="M2608 6161 c-57 -27 -77 -50 -94 -109 -17 -59 -13 -126 12 -174 8
-16 16 -28 17 -28 1 0 2 42 2 92 0 51 5 101 10 111 8 12 10 -8 7 -76 -4 -80
-1 -101 18 -145 18 -41 30 -55 64 -72 23 -11 60 -20 81 -20 l39 0 -24 17
c-125 83 -165 209 -107 336 14 31 22 57 17 57 -4 0 -22 -16 -40 -36 -17 -20
-33 -34 -36 -31 -3 2 13 23 36 47 22 23 40 44 40 46 0 5 2 6 -42 -15z"/>
<path d="M2669 6132 c-48 -69 -60 -137 -37 -213 13 -44 33 -54 21 -11 -22 78
2 185 55 245 12 14 13 17 1 17 -8 0 -26 -17 -40 -38z"/>
<path d="M2520 6134 c0 -8 5 -12 10 -9 6 3 10 10 10 16 0 5 -4 9 -10 9 -5 0
-10 -7 -10 -16z"/>
<path d="M2675 6074 c-8 -20 -15 -57 -15 -83 l1 -46 111 -92 c117 -97 147
-111 214 -98 50 9 118 80 133 139 19 76 13 76 -59 4 l-70 -71 -48 5 c-91 9
-262 111 -262 157 0 11 8 6 25 -16 30 -37 129 -95 201 -116 65 -19 93 -8 157
63 39 43 47 59 47 90 0 22 -4 42 -10 45 -5 3 -10 -2 -10 -11 0 -28 -60 -114
-91 -129 -61 -32 -171 -10 -227 44 -38 37 -78 123 -66 142 3 5 0 9 -5 9 -6 0
-18 -16 -26 -36z"/>
<path d="M2675 5901 c-7 -13 20 -53 67 -99 23 -21 48 -35 74 -38 l39 -6 -36
34 c-20 18 -49 44 -65 57 -16 13 -39 32 -50 43 -15 13 -24 16 -29 9z"/>
<path d="M2755 5721 c-35 -6 -37 -8 -17 -14 25 -9 62 -1 62 14 0 5 -1 8 -2 8
-2 -1 -21 -5 -43 -8z"/>
<path d="M2065 5554 c-23 -23 2 -84 50 -124 12 -10 15 -10 15 4 0 9 7 16 15
16 19 0 33 -32 17 -38 -20 -6 -13 -29 15 -52 23 -18 28 -19 35 -5 5 8 17 15
27 15 21 0 36 -26 21 -35 -22 -14 -7 -34 37 -49 50 -17 73 -10 73 24 0 46
-149 207 -223 240 -52 24 -61 24 -82 4z m50 -35 c-4 -5 -1 -9 6 -9 7 0 10 -3
6 -6 -12 -12 -37 5 -31 21 3 8 10 12 15 9 5 -3 7 -10 4 -15z m123 -67 c2 -7
-7 -12 -21 -12 -23 0 -43 30 -29 44 7 8 45 -17 50 -32z m96 -104 c5 -15 7 -31
3 -34 -11 -11 -47 27 -47 48 0 29 33 18 44 -14z"/>
<path d="M2040 5480 c0 -20 66 -105 112 -142 47 -39 148 -98 166 -98 26 0 8
17 -49 43 -57 28 -129 90 -196 171 -18 22 -33 33 -33 26z"/>
<path d="M2060 5291 c0 -6 4 -13 10 -16 6 -3 7 1 4 9 -7 18 -14 21 -14 7z"/>
<path d="M1718 5220 c-7 -24 -3 -38 8 -28 3 4 4 17 2 30 l-3 23 -7 -25z"/>
<path d="M5090 4965 c0 -8 9 -15 20 -15 11 0 20 -6 20 -14 0 -14 48 -51 57
-43 7 7 -20 47 -32 47 -6 0 -18 9 -28 20 -20 24 -37 26 -37 5z"/>
<path d="M5215 4860 c-3 -5 4 -14 16 -20 27 -15 30 -10 8 12 -10 10 -21 13
-24 8z"/>
<path d="M5310 4800 c0 -5 5 -10 11 -10 5 0 7 5 4 10 -3 6 -8 10 -11 10 -2 0
-4 -4 -4 -10z"/>
<path d="M3125 5330 c-22 -5 -75 -13 -118 -18 -102 -13 -127 -34 -127 -106 0
-59 29 -116 59 -116 24 0 36 16 49 68 20 84 77 136 170 156 18 4 30 12 26 17
-3 5 -8 8 -12 8 -4 -1 -25 -5 -47 -9z"/>
<path d="M5555 4510 c3 -5 13 -10 21 -10 8 0 14 5 14 10 0 6 -9 10 -21 10 -11
0 -17 -4 -14 -10z"/>
<path d="M5598 4490 c-2 -7 12 -28 33 -47 41 -37 49 -40 49 -18 0 8 -5 15 -12
15 -6 0 -24 14 -38 32 -19 22 -28 28 -32 18z"/>
<path d="M5408 4080 c-59 -61 -110 -110 -113 -110 -10 0 -38 -30 -33 -35 13
-13 87 22 123 58 23 23 57 56 76 73 19 17 42 41 52 54 17 24 24 70 10 70 -5 0
-56 -50 -115 -110z"/>
<path d="M1202 4735 c-7 -14 -12 -32 -12 -40 0 -20 22 -65 31 -65 12 0 31 72
27 100 -4 34 -32 37 -46 5z"/>
<path d="M1092 4521 c-14 -8 -6 -41 9 -41 14 0 23 30 13 40 -5 5 -15 6 -22 1z"/>
<path d="M6023 4075 c-10 -11 -9 -15 7 -20 11 -4 20 -10 20 -15 0 -5 9 -14 19
-19 16 -9 18 -8 14 9 -3 11 -12 20 -19 20 -8 0 -14 6 -14 14 0 21 -13 26 -27
11z"/>
<path d="M6110 3971 c0 -13 29 -35 37 -28 7 8 -15 37 -28 37 -5 0 -9 -4 -9 -9z"/>
<path d="M547 4353 c-14 -13 -6 -33 13 -33 13 0 20 7 20 20 0 19 -20 27 -33
13z"/>
<path d="M675 4301 c-24 -47 -65 -221 -65 -277 0 -59 16 -114 34 -114 39 0 79
101 96 242 13 114 2 178 -30 178 -11 0 -26 -12 -35 -29z"/>
<path d="M6558 3542 c26 -26 32 -27 32 -7 0 8 -4 15 -9 15 -5 0 -17 3 -27 7
-14 5 -13 2 4 -15z"/>
<path d="M6750 3350 c0 -5 5 -10 10 -10 6 0 10 5 10 10 0 6 -4 10 -10 10 -5 0
-10 -4 -10 -10z"/>
<path d="M5024 2347 c-12 -7 -38 -32 -58 -56 -37 -44 -95 -101 -102 -101 -3 0
-21 -17 -42 -38 -20 -21 -53 -52 -73 -69 -40 -34 -54 -62 -44 -93 6 -18 12
-15 61 32 31 29 60 55 65 56 5 2 9 8 9 13 0 5 28 35 62 67 33 31 79 74 100 95
30 30 42 36 52 28 11 -9 12 -4 6 29 -9 50 -10 51 -36 37z"/>
<path d="M3915 2030 c4 -6 11 -8 16 -5 14 9 11 15 -7 15 -8 0 -12 -5 -9 -10z"/>
<path d="M3965 1970 c-3 -5 1 -10 9 -10 9 0 16 5 16 10 0 6 -4 10 -9 10 -6 0
-13 -4 -16 -10z"/>
<path d="M4591 1921 c-27 -25 -64 -58 -81 -73 -32 -28 -38 -67 -13 -75 11 -4
183 161 183 176 0 5 -9 11 -19 14 -13 3 -35 -10 -70 -42z"/>
<path d="M4020 1913 c0 -15 69 -75 81 -71 8 3 2 14 -14 31 -15 14 -27 31 -27
37 0 5 -9 10 -20 10 -11 0 -20 -3 -20 -7z"/>
<path d="M4135 1800 c31 -32 55 -39 55 -15 0 8 -16 22 -36 30 -50 21 -52 19
-19 -15z"/>
<path d="M4430 1772 c0 -4 -18 -27 -40 -51 -40 -43 -84 -57 -99 -33 -3 6 -19
15 -34 21 -22 9 -27 8 -27 -4 0 -8 5 -15 10 -15 17 0 60 -47 60 -65 0 -8 -7
-15 -15 -15 -8 0 -19 -9 -25 -20 -6 -11 -16 -20 -23 -20 -7 0 -25 -14 -40 -31
-21 -25 -25 -35 -16 -45 17 -20 29 -17 58 14 40 43 99 84 111 77 20 -12 32 6
13 21 -17 13 -17 15 10 35 15 11 27 29 27 39 0 10 7 17 16 16 21 -1 58 48 51
68 -6 16 -37 23 -37 8z"/>
<path d="M5210 1579 c0 -5 5 -7 10 -4 6 3 10 8 10 11 0 2 -4 4 -10 4 -5 0 -10
-5 -10 -11z"/>
<path d="M4370 1565 c0 -9 6 -12 15 -9 8 4 15 10 15 15 0 5 -7 9 -15 9 -8 0
-15 -7 -15 -15z"/>
<path d="M4430 1534 c0 -16 23 -44 36 -44 11 0 12 4 5 19 -10 17 -41 37 -41
25z"/>
<path d="M4115 1459 c-19 -17 -32 -36 -29 -41 4 -6 0 -14 -7 -19 -11 -6 -11
-11 -2 -20 9 -9 23 -4 60 26 26 21 49 40 51 41 7 4 -19 44 -28 44 -5 0 -25
-14 -45 -31z"/>
<path d="M4575 1375 c38 -36 73 -65 77 -65 4 0 8 -11 8 -24 0 -36 25 -40 28
-5 1 16 -1 29 -5 29 -5 0 -25 16 -45 34 -21 19 -51 43 -68 52 -16 10 -30 21
-30 25 0 4 -8 10 -17 13 -10 3 13 -23 52 -59z"/>
<path d="M4035 1379 c-5 -8 -15 -23 -22 -35 -11 -18 -11 -23 0 -32 10 -8 20
-5 40 12 27 23 27 24 9 46 -15 19 -20 21 -27 9z"/>
<path d="M3284 1254 c3 -9 6 -18 6 -20 0 -2 5 -4 11 -4 7 0 17 -6 23 -14 6 -8
29 -17 51 -20 22 -3 34 -3 28 0 -7 3 -28 21 -47 40 -36 36 -83 48 -72 18z"/>
<path d="M3380 1166 c0 -14 35 -36 57 -36 25 0 26 0 8 20 -15 17 -65 29 -65
16z"/>
<path d="M3830 763 c0 -16 38 -55 50 -51 6 2 -3 16 -20 33 -16 16 -30 24 -30
18z"/>
<path d="M316 3768 c-23 -33 -21 -139 4 -187 36 -71 134 -91 151 -30 30 106
-30 239 -106 239 -24 0 -39 -7 -49 -22z m100 -34 c30 -31 34 -42 34 -90 0 -59
-22 -94 -59 -94 -25 0 -58 42 -72 92 -9 34 -7 46 11 84 12 24 29 44 37 44 9 0
31 -16 49 -36z"/>
<path d="M350 3728 c-25 -27 -26 -71 -2 -118 14 -28 23 -35 46 -35 24 0 31 5
38 30 10 39 1 89 -24 120 -24 31 -32 31 -58 3z m50 -47 c15 -29 12 -57 -7 -76
-15 -16 -17 -15 -29 7 -17 29 -17 61 -2 76 17 17 26 15 38 -7z"/>
<path d="M370 3651 c0 -32 14 -49 25 -31 9 15 -3 60 -15 60 -6 0 -10 -13 -10
-29z"/>
<path d="M3329 3474 c-12 -14 -11 -16 5 -13 11 2 21 10 24 17 5 17 -13 15 -29
-4z"/>
<path d="M3500 3470 c-11 -11 -20 -25 -20 -30 0 -16 63 -2 77 17 27 35 -23 47
-57 13z"/>
<path d="M2291 2234 c0 -11 3 -14 6 -6 3 7 2 16 -1 19 -3 4 -6 -2 -5 -13z"/>
<path d="M2342 2193 c2 -10 10 -17 16 -15 7 1 12 -5 12 -13 0 -8 7 -15 15 -15
8 0 15 -5 15 -12 0 -6 2 -9 5 -6 10 10 -6 35 -36 57 -28 21 -30 21 -27 4z"/>
<path d="M2041 2124 c0 -11 3 -14 6 -6 3 7 2 16 -1 19 -3 4 -6 -2 -5 -13z"/>
<path d="M2430 2111 c0 -5 5 -13 10 -16 6 -3 10 -2 10 4 0 5 -4 13 -10 16 -5
3 -10 2 -10 -4z"/>
<path d="M2472 2060 c15 -24 38 -26 38 -4 0 10 -6 14 -15 10 -8 -3 -15 -1 -15
4 0 6 -5 10 -10 10 -6 0 -5 -8 2 -20z"/>
<path d="M1920 2019 c0 -5 5 -7 10 -4 6 3 10 8 10 11 0 2 -4 4 -10 4 -5 0 -10
-5 -10 -11z"/>
<path d="M1785 1880 c-3 -5 -2 -10 4 -10 5 0 13 5 16 10 3 6 2 10 -4 10 -5 0
-13 -4 -16 -10z"/>
</g>
</svg>
